<?xml version="1.0" encoding="UTF-8"?>
<svg id="Capa_1" data-name="Capa 1" xmlns="http://www.w3.org/2000/svg" viewBox="0 0 1664.15 346.99">
  <defs>
    <style>
      .cls-1 {
        fill: #fff;
      }
    </style>
  </defs>
  <g>
    <path class="cls-1" d="M68.08,212.66L.06,212.41V57.62C.06,25.82,27.8.04,62.01.04h155.05v63.22H86.84c-.5,0-.99.02-1.49.05-9.8.7-17.19,9.28-17.19,19.11l-.08,130.25Z"/>
    <path class="cls-1" d="M148.98,129.44l68.01.26v154.79c0,31.8-27.73,57.58-61.95,57.58H0v-63.22h130.22c.5,0,.99-.02,1.49-.05,9.8-.7,17.19-9.28,17.19-19.11l.08-130.25Z"/>
    <path class="cls-1" d="M317.49,238.46h-78.81v-63.07l57.99-.61c11.52,0,20.87-9.15,20.92-20.48.08-19.19.19-47.82.16-67.79-.02-12.63-10.44-22.86-23.27-22.85l-56.06.04V.02h79.07c49.16-.8,66.92,25.93,66.11,66.01v106.42c2.12,46.25-22.43,64.24-66.11,66.01Z"/>
  </g>
  <g>
    <polygon class="cls-1" points="378.74 307.62 374.57 321.42 374.41 321.42 370.31 307.54 358.45 273.81 348.38 273.81 348.38 329.32 354.6 329.32 354.6 294.42 353.86 279.78 353.95 279.78 371.7 329.32 377.27 329.32 395.03 279.78 395.11 279.78 394.37 294.42 394.37 329.32 400.59 329.32 400.59 273.81 390.53 273.81 378.74 307.62"/>
    <path class="cls-1" d="M446.99,321.17v-20.36c0-3.31-.7-6.01-2.09-8.12-1.39-2.1-3.29-3.67-5.69-4.71-2.4-1.04-5.07-1.56-8.02-1.56-4.37,0-8.02.97-10.97,2.9-2.95,1.94-4.97,4.47-6.06,7.61l5.32,3.36c.93-2.8,2.37-4.84,4.34-6.1,1.96-1.26,4.36-1.89,7.2-1.89,3,0,5.32.86,6.96,2.57,1.64,1.71,2.45,4.14,2.45,7.28v1.61l-14.89,3.02c-3.66.73-6.51,2.12-8.55,4.16-2.05,2.05-3.07,4.64-3.07,7.78,0,2.52.61,4.64,1.84,6.35,1.23,1.71,2.88,2.99,4.95,3.83,2.07.84,4.31,1.26,6.71,1.26,1.91,0,3.85-.32,5.81-.97,1.96-.64,3.74-1.65,5.32-3.03.76-.66,1.41-1.43,1.96-2.28.18.85.45,1.61.82,2.28.71,1.26,1.69,2.2,2.95,2.82,1.25.62,2.67.93,4.26.93,1.75,0,3.16-.28,4.26-.84l.33-5.3c-.98.28-1.99.42-3.03.42-2.07,0-3.11-1.01-3.11-3.03ZM436.76,321.71c-1.15.87-2.44,1.51-3.89,1.93-1.45.42-2.96.63-4.54.63-2.46,0-4.35-.55-5.69-1.64-1.34-1.09-2.01-2.51-2.01-4.25s.66-3.2,1.96-4.21c1.31-1.01,3.3-1.79,5.97-2.36l11.87-2.5v4.43c0,1.8-.33,3.35-.98,4.67-.65,1.32-1.55,2.41-2.7,3.28Z"/>
    <path class="cls-1" d="M492.81,294.5c-.48-1.12-1.11-2.15-1.91-3.07-1.39-1.6-3.07-2.83-5.03-3.7-1.96-.87-4.09-1.3-6.38-1.3-3.38,0-6.55.85-9.49,2.56-2.95,1.71-5.32,4.19-7.12,7.44-1.8,3.25-2.7,7.21-2.7,11.86s.85,8.45,2.54,11.73c1.69,3.28,3.95,5.79,6.79,7.53,2.84,1.74,5.95,2.61,9.33,2.61,2.35,0,4.57-.45,6.67-1.35,2.1-.9,3.87-2.2,5.32-3.91.64-.76,1.16-1.61,1.6-2.52v24.6h6.55v-59.72h-5.73l-.42,7.23ZM490.78,316.66c-1.09,2.44-2.61,4.32-4.54,5.64-1.94,1.32-4.19,1.98-6.75,1.98-4.04,0-7.18-1.46-9.41-4.37-2.24-2.91-3.36-6.78-3.36-11.61s1.15-8.69,3.44-11.61c2.29-2.91,5.46-4.37,9.49-4.37,2.56,0,4.8.62,6.71,1.85,1.91,1.23,3.4,3.01,4.46,5.34,1.06,2.33,1.6,5.17,1.6,8.54s-.55,6.18-1.64,8.62Z"/>
    <path class="cls-1" d="M542.91,310.15c0,2.47-.34,4.6-1.02,6.39-.68,1.8-1.61,3.27-2.78,4.42-1.17,1.15-2.5,1.99-3.97,2.52-1.47.53-2.97.8-4.5.8-3.27,0-5.81-.8-7.61-2.4-1.8-1.6-2.7-4.53-2.7-8.79v-25.82h-6.55v27.59c0,3.65.72,6.6,2.17,8.87,1.44,2.27,3.33,3.91,5.65,4.92,2.32,1.01,4.79,1.51,7.41,1.51,3.27,0,6.12-.58,8.55-1.72,2.43-1.15,4.35-2.99,5.77-5.51l.41,6.39h5.73v-42.06h-6.55v22.88Z"/>
    <rect class="cls-1" x="564.68" y="287.27" width="6.55" height="42.06"/>
    <path class="cls-1" d="M567.95,269.1c-1.47,0-2.66.46-3.56,1.39-.9.93-1.35,2.14-1.35,3.66s.45,2.73,1.35,3.66c.9.93,2.09,1.39,3.56,1.39s2.66-.46,3.56-1.39c.9-.93,1.35-2.14,1.35-3.66s-.45-2.73-1.35-3.66c-.9-.93-2.09-1.39-3.56-1.39Z"/>
    <path class="cls-1" d="M597.49,324.28c-1.69,0-2.92-.41-3.68-1.22-.76-.81-1.15-2.28-1.15-4.41v-50.72h-6.55v50.97c0,3.82.8,6.65,2.41,8.5,1.61,1.85,4.08,2.78,7.41,2.78,1.09,0,2.15-.1,3.19-.29,1.04-.2,1.99-.49,2.86-.88l1.06-5.89c-1.2.45-2.16.76-2.86.93-.71.17-1.61.25-2.7.25Z"/>
    <path class="cls-1" d="M641.93,321.17v-20.36c0-3.31-.7-6.01-2.09-8.12-1.39-2.1-3.29-3.67-5.69-4.71-2.4-1.04-5.07-1.56-8.02-1.56-4.37,0-8.02.97-10.97,2.9-2.95,1.94-4.97,4.47-6.06,7.61l5.32,3.36c.93-2.8,2.37-4.84,4.34-6.1,1.96-1.26,4.36-1.89,7.2-1.89,3,0,5.32.86,6.96,2.57,1.64,1.71,2.45,4.14,2.45,7.28v1.61l-14.89,3.02c-3.66.73-6.51,2.12-8.55,4.16-2.05,2.05-3.07,4.64-3.07,7.78,0,2.52.61,4.64,1.84,6.35,1.23,1.71,2.88,2.99,4.95,3.83,2.07.84,4.31,1.26,6.71,1.26,1.91,0,3.85-.32,5.81-.97,1.96-.64,3.74-1.65,5.32-3.03.76-.66,1.41-1.43,1.96-2.28.18.85.45,1.61.82,2.28.71,1.26,1.69,2.2,2.95,2.82,1.25.62,2.67.93,4.26.93,1.75,0,3.16-.28,4.26-.84l.33-5.3c-.98.28-1.99.42-3.03.42-2.07,0-3.11-1.01-3.11-3.03ZM631.7,321.71c-1.15.87-2.44,1.51-3.89,1.93-1.45.42-2.96.63-4.54.63-2.46,0-4.35-.55-5.69-1.64-1.34-1.09-2.01-2.51-2.01-4.25s.66-3.2,1.96-4.21c1.31-1.01,3.3-1.79,5.97-2.36l11.87-2.5v4.43c0,1.8-.33,3.35-.98,4.67-.65,1.32-1.55,2.41-2.7,3.28Z"/>
    <path class="cls-1" d="M713.37,294.06c-.93-1.96-2.3-3.61-4.13-4.94-2.48-1.79-5.42-2.69-8.8-2.69s-6.55.85-9.49,2.56c-2.95,1.71-5.32,4.19-7.12,7.44-1.8,3.25-2.7,7.21-2.7,11.86s.85,8.45,2.54,11.73c1.69,3.28,3.95,5.79,6.79,7.53,2.84,1.74,5.95,2.61,9.33,2.61,2.35,0,4.57-.45,6.67-1.35,2.1-.9,3.87-2.2,5.32-3.91.85-1,1.49-2.15,1.97-3.42l.44,7.83h5.73v-61.4h-6.55v26.13ZM711.78,316.5c-1.06,2.5-2.57,4.42-4.5,5.76-1.94,1.34-4.21,2.02-6.83,2.02-4.04,0-7.18-1.46-9.41-4.37-2.24-2.91-3.36-6.78-3.36-11.61s1.15-8.69,3.44-11.61c2.29-2.91,5.51-4.37,9.66-4.37,2.51,0,4.71.62,6.59,1.85,1.88,1.23,3.36,3,4.42,5.3,1.06,2.3,1.6,5.05,1.6,8.24,0,3.36-.53,6.3-1.6,8.79Z"/>
    <path class="cls-1" d="M761.61,288.95c-2.7-1.68-5.96-2.52-9.78-2.52s-7.12.87-10.07,2.61c-2.95,1.74-5.27,4.25-6.96,7.53-1.69,3.28-2.54,7.19-2.54,11.73s.85,8.45,2.54,11.73c1.69,3.28,4.05,5.79,7.08,7.53,3.03,1.74,6.48,2.61,10.35,2.61,2.67,0,5.09-.38,7.24-1.14,2.15-.76,4.04-1.84,5.65-3.24,1.61-1.4,2.93-3.06,3.97-4.96l-5.16-3.11c-1.15,2.02-2.66,3.62-4.54,4.79-1.88,1.18-4.33,1.77-7.32,1.77-2.78,0-5.17-.63-7.16-1.89-1.99-1.26-3.53-3.1-4.62-5.51-.87-1.92-1.38-4.15-1.55-6.64h30.85c.11-.62.19-1.32.24-2.1.05-.78.08-1.65.08-2.61,0-3.59-.71-6.83-2.13-9.72-1.42-2.89-3.48-5.17-6.18-6.85ZM744.76,294.21c1.94-1.26,4.24-1.89,6.92-1.89,3.49,0,6.31,1.09,8.47,3.28,2.03,2.06,3.09,4.96,3.21,8.66h-24.38c.26-1.68.67-3.22,1.28-4.58,1.06-2.38,2.56-4.21,4.5-5.47Z"/>
    <path class="cls-1" d="M839.77,289.03c-2.81-1.74-5.88-2.61-9.21-2.61-2.35,0-4.53.42-6.55,1.26-2.02.84-3.74,2.01-5.16,3.49-1,1.04-1.81,2.21-2.45,3.48l-.41-7.4h-5.73v59.72h6.55v-24.26c1.1,1.91,2.64,3.53,4.62,4.87,2.54,1.71,5.5,2.57,8.88,2.57s6.49-.87,9.33-2.61c2.84-1.74,5.11-4.25,6.83-7.53,1.72-3.28,2.58-7.19,2.58-11.73s-.85-8.52-2.54-11.78c-1.69-3.25-3.94-5.75-6.75-7.49ZM839.11,319.9c-2.27,2.92-5.42,4.37-9.45,4.37-2.56,0-4.82-.66-6.75-1.98-1.94-1.32-3.44-3.18-4.5-5.59-1.06-2.41-1.6-5.22-1.6-8.41s.54-6.07,1.64-8.45c1.09-2.38,2.62-4.23,4.58-5.55,1.96-1.32,4.26-1.98,6.87-1.98,3.98,0,7.08,1.46,9.29,4.37,2.21,2.92,3.31,6.79,3.31,11.61s-1.13,8.69-3.4,11.61Z"/>
    <rect class="cls-1" x="861.58" y="287.27" width="6.55" height="42.06"/>
    <path class="cls-1" d="M864.85,269.1c-1.47,0-2.66.46-3.56,1.39-.9.93-1.35,2.14-1.35,3.66s.45,2.73,1.35,3.66c.9.93,2.09,1.39,3.56,1.39s2.66-.46,3.56-1.39c.9-.93,1.35-2.14,1.35-3.66s-.45-2.73-1.35-3.66c-.9-.93-2.09-1.39-3.56-1.39Z"/>
    <path class="cls-1" d="M911.25,288.15c-2.4-1.15-5.07-1.72-8.02-1.72-2.07,0-4.08.31-6.02.93-1.94.62-3.64,1.61-5.11,2.99-1.02.96-1.89,2.13-2.63,3.51l-.4-6.58h-5.73v42.06h6.55v-22.37c0-3.59.64-6.45,1.92-8.58,1.28-2.13,2.91-3.67,4.87-4.63,1.96-.95,3.93-1.43,5.89-1.43,2.84,0,5.22.91,7.16,2.73,1.94,1.82,2.91,5.06,2.91,9.71v24.56h6.55v-26.92c0-3.65-.72-6.65-2.17-9-1.45-2.35-3.37-4.11-5.77-5.26Z"/>
    <path class="cls-1" d="M953.32,323.01c-1.15.56-2.51.84-4.09.84-1.8,0-3.27-.5-4.42-1.51-1.15-1.01-1.72-2.55-1.72-4.63v-24.64h14.89v-5.8h-14.89v-11.94l-6.55,1.85v10.09h-8.18v5.8h8.18v25.82c.05,2.69.61,4.87,1.68,6.52,1.06,1.65,2.5,2.86,4.3,3.62,1.8.76,3.74,1.14,5.81,1.14,2.24,0,4.21-.34,5.93-1.01,1.72-.67,3.2-1.6,4.46-2.78l-2.29-5.64c-.93.95-1.96,1.71-3.11,2.27Z"/>
    <path class="cls-1" d="M996.44,310.15c0,2.47-.34,4.6-1.02,6.39-.68,1.8-1.61,3.27-2.78,4.42-1.17,1.15-2.5,1.99-3.97,2.52-1.47.53-2.97.8-4.5.8-3.27,0-5.81-.8-7.61-2.4-1.8-1.6-2.7-4.53-2.7-8.79v-25.82h-6.55v27.59c0,3.65.72,6.6,2.17,8.87,1.44,2.27,3.33,3.91,5.65,4.92,2.32,1.01,4.79,1.51,7.41,1.51,3.27,0,6.12-.58,8.55-1.72,2.43-1.15,4.35-2.99,5.77-5.51l.41,6.39h5.73v-42.06h-6.55v22.88Z"/>
    <path class="cls-1" d="M1037.53,286.43c-3.16,0-5.85.64-8.06,1.93-2.21,1.29-3.89,3.23-5.03,5.8l-.9-6.9h-5.32v42.06h6.55v-22.71c0-3.14.57-5.73,1.72-7.78,1.15-2.05,2.58-3.57,4.3-4.58,1.72-1.01,3.42-1.51,5.12-1.51,1.31,0,2.32.06,3.03.17.71.11,1.36.28,1.96.5l1.15-6.14c-.6-.34-1.32-.56-2.17-.67-.85-.11-1.62-.17-2.33-.17Z"/>
    <path class="cls-1" d="M1080.9,321.17v-20.36c0-3.31-.7-6.01-2.09-8.12-1.39-2.1-3.29-3.67-5.69-4.71-2.4-1.04-5.07-1.56-8.02-1.56-4.37,0-8.02.97-10.97,2.9-2.95,1.94-4.97,4.47-6.06,7.61l5.32,3.36c.93-2.8,2.37-4.84,4.34-6.1,1.96-1.26,4.36-1.89,7.2-1.89,3,0,5.32.86,6.96,2.57,1.64,1.71,2.45,4.14,2.45,7.28v1.61l-14.89,3.02c-3.66.73-6.51,2.12-8.55,4.16-2.05,2.05-3.07,4.64-3.07,7.78,0,2.52.61,4.64,1.84,6.35,1.23,1.71,2.88,2.99,4.95,3.83,2.07.84,4.31,1.26,6.71,1.26,1.91,0,3.85-.32,5.81-.97,1.96-.64,3.74-1.65,5.32-3.03.76-.66,1.41-1.43,1.96-2.28.18.85.45,1.61.82,2.28.71,1.26,1.69,2.2,2.95,2.82,1.25.62,2.67.93,4.26.93,1.75,0,3.16-.28,4.26-.84l.33-5.3c-.98.28-1.99.42-3.03.42-2.07,0-3.11-1.01-3.11-3.03ZM1070.67,321.71c-1.15.87-2.44,1.51-3.89,1.93-1.45.42-2.96.63-4.54.63-2.46,0-4.35-.55-5.69-1.64-1.34-1.09-2.01-2.51-2.01-4.25s.66-3.2,1.96-4.21c1.31-1.01,3.3-1.79,5.97-2.36l11.87-2.5v4.43c0,1.8-.33,3.35-.98,4.67-.65,1.32-1.55,2.41-2.7,3.28Z"/>
    <path class="cls-1" d="M1149.27,288.95c-2.7-1.68-5.96-2.52-9.78-2.52s-7.12.87-10.07,2.61c-2.95,1.74-5.27,4.25-6.96,7.53-1.69,3.28-2.54,7.19-2.54,11.73s.85,8.45,2.54,11.73c1.69,3.28,4.05,5.79,7.08,7.53,3.03,1.74,6.48,2.61,10.35,2.61,2.67,0,5.09-.38,7.24-1.14,2.15-.76,4.04-1.84,5.65-3.24,1.61-1.4,2.93-3.06,3.97-4.96l-5.16-3.11c-1.15,2.02-2.66,3.62-4.54,4.79-1.88,1.18-4.33,1.77-7.32,1.77-2.78,0-5.17-.63-7.16-1.89-1.99-1.26-3.53-3.1-4.62-5.51-.87-1.92-1.38-4.15-1.55-6.64h30.85c.11-.62.19-1.32.24-2.1.05-.78.08-1.65.08-2.61,0-3.59-.71-6.83-2.13-9.72-1.42-2.89-3.48-5.17-6.18-6.85ZM1132.42,294.21c1.94-1.26,4.24-1.89,6.92-1.89,3.49,0,6.31,1.09,8.47,3.28,2.03,2.06,3.09,4.96,3.21,8.66h-24.38c.26-1.68.67-3.22,1.28-4.58,1.06-2.38,2.56-4.21,4.5-5.47Z"/>
    <path class="cls-1" d="M1181.07,324.28c-1.69,0-2.92-.41-3.68-1.22-.76-.81-1.15-2.28-1.15-4.41v-50.72h-6.55v50.97c0,3.82.8,6.65,2.41,8.5,1.61,1.85,4.08,2.78,7.41,2.78,1.09,0,2.15-.1,3.19-.29,1.04-.2,1.99-.49,2.86-.88l1.06-5.89c-1.2.45-2.16.76-2.86.93-.71.17-1.61.25-2.7.25Z"/>
    <path class="cls-1" d="M1221.54,288.95c-2.7-1.68-5.96-2.52-9.78-2.52s-7.12.87-10.07,2.61c-2.95,1.74-5.27,4.25-6.96,7.53-1.69,3.28-2.54,7.19-2.54,11.73s.85,8.45,2.54,11.73c1.69,3.28,4.05,5.79,7.08,7.53,3.03,1.74,6.48,2.61,10.35,2.61,2.67,0,5.09-.38,7.24-1.14,2.15-.76,4.04-1.84,5.65-3.24,1.61-1.4,2.93-3.06,3.97-4.96l-5.16-3.11c-1.15,2.02-2.66,3.62-4.54,4.79-1.88,1.18-4.33,1.77-7.33,1.77-2.78,0-5.17-.63-7.16-1.89-1.99-1.26-3.53-3.1-4.62-5.51-.87-1.92-1.38-4.15-1.55-6.64h30.85c.11-.62.19-1.32.24-2.1.05-.78.08-1.65.08-2.61,0-3.59-.71-6.83-2.13-9.72-1.42-2.89-3.48-5.17-6.18-6.85ZM1204.68,294.21c1.94-1.26,4.24-1.89,6.92-1.89,3.49,0,6.31,1.09,8.47,3.28,2.03,2.06,3.09,4.96,3.21,8.66h-24.38c.26-1.68.67-3.22,1.28-4.58,1.06-2.38,2.56-4.21,4.5-5.47Z"/>
    <path class="cls-1" d="M1268.43,320.32c-1.01,1.29-2.29,2.27-3.85,2.94-1.55.67-3.4,1.01-5.52,1.01-2.73,0-5.07-.63-7.04-1.89-1.96-1.26-3.46-3.1-4.5-5.51-1.04-2.41-1.56-5.27-1.56-8.58s.52-6.24,1.56-8.62c1.04-2.38,2.54-4.21,4.5-5.47,1.96-1.26,4.31-1.89,7.04-1.89s5.14.72,6.92,2.15c1.77,1.43,3.1,3.49,3.97,6.18l6.22-3.03c-.98-2.3-2.26-4.29-3.85-5.97-1.58-1.68-3.45-2.97-5.61-3.87-2.16-.9-4.65-1.34-7.49-1.34-3.82,0-7.23.87-10.23,2.61-3,1.74-5.35,4.25-7.04,7.53-1.69,3.28-2.54,7.19-2.54,11.73s.85,8.45,2.54,11.73c1.69,3.28,4.04,5.79,7.04,7.53,3,1.74,6.41,2.61,10.23,2.61,2.89,0,5.47-.49,7.73-1.47,2.26-.98,4.2-2.4,5.81-4.25,1.61-1.85,2.88-4.06,3.81-6.64l-6.06-2.19c-.38,1.85-1.08,3.42-2.09,4.71Z"/>
    <path class="cls-1" d="M1308,323.01c-1.15.56-2.51.84-4.09.84-1.8,0-3.27-.5-4.42-1.51-1.15-1.01-1.72-2.55-1.72-4.63v-24.64h14.89v-5.8h-14.89v-11.94l-6.55,1.85v10.09h-8.18v5.8h8.18v25.82c.05,2.69.61,4.87,1.68,6.52,1.06,1.65,2.5,2.86,4.3,3.62,1.8.76,3.74,1.14,5.81,1.14,2.24,0,4.21-.34,5.93-1.01,1.72-.67,3.2-1.6,4.46-2.78l-2.29-5.64c-.93.95-1.96,1.71-3.11,2.27Z"/>
    <path class="cls-1" d="M1341.71,286.43c-3.16,0-5.85.64-8.06,1.93-2.21,1.29-3.89,3.23-5.03,5.8l-.9-6.9h-5.32v42.06h6.55v-22.71c0-3.14.57-5.73,1.72-7.78,1.15-2.05,2.58-3.57,4.3-4.58,1.72-1.01,3.42-1.51,5.12-1.51,1.31,0,2.32.06,3.03.17.71.11,1.36.28,1.96.5l1.15-6.14c-.6-.34-1.32-.56-2.17-.67-.85-.11-1.62-.17-2.33-.17Z"/>
    <path class="cls-1" d="M1381.69,289.03c-2.97-1.74-6.4-2.61-10.27-2.61s-7.23.87-10.23,2.61c-3,1.74-5.35,4.25-7.04,7.53-1.69,3.28-2.54,7.19-2.54,11.73s.85,8.45,2.54,11.73c1.69,3.28,4.04,5.79,7.04,7.53,3,1.74,6.41,2.61,10.23,2.61s7.3-.87,10.27-2.61c2.97-1.74,5.31-4.25,7-7.53,1.69-3.28,2.54-7.19,2.54-11.73s-.85-8.45-2.54-11.73c-1.69-3.28-4.02-5.79-7-7.53ZM1383.08,316.88c-1.06,2.41-2.58,4.26-4.54,5.55-1.96,1.29-4.34,1.93-7.12,1.93s-5.16-.64-7.12-1.93c-1.96-1.29-3.48-3.14-4.54-5.55-1.06-2.41-1.6-5.27-1.6-8.58s.53-6.24,1.6-8.62c1.06-2.38,2.58-4.22,4.54-5.51,1.96-1.29,4.34-1.94,7.12-1.94s5.16.65,7.12,1.94c1.96,1.29,3.48,3.13,4.54,5.51,1.06,2.38,1.6,5.26,1.6,8.62s-.53,6.17-1.6,8.58Z"/>
    <path class="cls-1" d="M1424.29,306.61l-10.23-2.19c-2.24-.45-3.76-1.19-4.58-2.23-.82-1.04-1.23-2.17-1.23-3.41s.37-2.34,1.1-3.32c.74-.98,1.8-1.75,3.19-2.31,1.39-.56,3.07-.84,5.03-.84,2.24,0,4.39.58,6.46,1.72,2.07,1.15,3.57,2.96,4.5,5.42l5.48-3.7c-1.36-2.97-3.44-5.27-6.22-6.9-2.78-1.63-6.19-2.44-10.23-2.44-3.22,0-6.02.58-8.39,1.72-2.37,1.15-4.2,2.68-5.48,4.58-1.28,1.91-1.92,4.01-1.92,6.31,0,2.91.86,5.36,2.58,7.32,1.72,1.96,4.57,3.36,8.55,4.21l9.82,2.1c2.07.45,3.48,1.16,4.21,2.14.74.98,1.1,2.06,1.1,3.24,0,1.85-.82,3.35-2.46,4.5-1.64,1.15-3.9,1.72-6.79,1.72-3.27,0-6.07-.73-8.39-2.19-2.32-1.46-4.08-3.48-5.28-6.06l-5.56,4.12c1.8,3.2,4.38,5.66,7.73,7.4,3.36,1.74,7.02,2.61,11.01,2.61,3.22,0,6.06-.53,8.51-1.6,2.46-1.07,4.36-2.59,5.73-4.58,1.36-1.99,2.05-4.3,2.05-6.94s-.76-4.77-2.29-6.56c-1.53-1.79-4.2-3.08-8.02-3.87Z"/>
    <path class="cls-1" d="M1466.6,323.01c-1.15.56-2.51.84-4.09.84-1.8,0-3.27-.5-4.42-1.51-1.15-1.01-1.72-2.55-1.72-4.63v-24.64h14.9v-5.8h-14.9v-11.94l-6.55,1.85v10.09h-8.18v5.8h8.18v25.82c.05,2.69.61,4.87,1.68,6.52,1.06,1.65,2.5,2.86,4.3,3.62,1.8.76,3.74,1.14,5.81,1.14,2.24,0,4.21-.34,5.93-1.01,1.72-.67,3.2-1.6,4.46-2.78l-2.29-5.64c-.93.95-1.96,1.71-3.11,2.27Z"/>
    <polygon class="cls-1" points="1491.97 280.29 1497.29 280.29 1505.31 266.24 1498.19 266.24 1491.97 280.29"/>
    <path class="cls-1" d="M1511.44,321.17v-20.36c0-3.31-.7-6.01-2.09-8.12-1.39-2.1-3.29-3.67-5.69-4.71-2.4-1.04-5.07-1.56-8.02-1.56-4.37,0-8.02.97-10.97,2.9-2.95,1.94-4.97,4.47-6.06,7.61l5.32,3.36c.93-2.8,2.37-4.84,4.34-6.1,1.96-1.26,4.36-1.89,7.2-1.89,3,0,5.32.86,6.96,2.57,1.64,1.71,2.45,4.14,2.45,7.28v1.61l-14.89,3.02c-3.66.73-6.51,2.12-8.55,4.16-2.05,2.05-3.07,4.64-3.07,7.78,0,2.52.61,4.64,1.84,6.35,1.23,1.71,2.88,2.99,4.95,3.83,2.07.84,4.31,1.26,6.71,1.26,1.91,0,3.85-.32,5.81-.97,1.96-.64,3.74-1.65,5.32-3.03.76-.66,1.41-1.43,1.96-2.28.18.85.45,1.61.82,2.28.71,1.26,1.69,2.2,2.95,2.82,1.25.62,2.67.93,4.26.93,1.75,0,3.16-.28,4.26-.84l.33-5.3c-.98.28-1.99.42-3.03.42-2.07,0-3.11-1.01-3.11-3.03ZM1501.21,321.71c-1.15.87-2.44,1.51-3.89,1.93-1.45.42-2.96.63-4.54.63-2.46,0-4.35-.55-5.69-1.64-1.34-1.09-2.01-2.51-2.01-4.25s.66-3.2,1.96-4.21c1.31-1.01,3.3-1.79,5.97-2.36l11.87-2.5v4.43c0,1.8-.33,3.35-.98,4.67-.65,1.32-1.55,2.41-2.7,3.28Z"/>
    <path class="cls-1" d="M1545.57,323.01c-1.15.56-2.51.84-4.09.84-1.8,0-3.27-.5-4.42-1.51-1.15-1.01-1.72-2.55-1.72-4.63v-24.64h14.89v-5.8h-14.89v-11.94l-6.55,1.85v10.09h-8.18v5.8h8.18v25.82c.05,2.69.61,4.87,1.68,6.52,1.06,1.65,2.5,2.86,4.3,3.62,1.8.76,3.74,1.14,5.81,1.14,2.24,0,4.21-.34,5.93-1.01,1.72-.67,3.2-1.6,4.46-2.78l-2.29-5.64c-.93.95-1.96,1.71-3.11,2.27Z"/>
    <path class="cls-1" d="M1563.25,269.1c-1.47,0-2.66.46-3.56,1.39-.9.93-1.35,2.14-1.35,3.66s.45,2.73,1.35,3.66c.9.93,2.09,1.39,3.56,1.39s2.66-.46,3.56-1.39c.9-.93,1.35-2.14,1.35-3.66s-.45-2.73-1.35-3.66c-.9-.93-2.09-1.39-3.56-1.39Z"/>
    <rect class="cls-1" x="1559.97" y="287.27" width="6.55" height="42.06"/>
    <path class="cls-1" d="M1607.89,320.32c-1.01,1.29-2.29,2.27-3.85,2.94-1.55.67-3.4,1.01-5.52,1.01-2.73,0-5.07-.63-7.04-1.89-1.96-1.26-3.46-3.1-4.5-5.51-1.04-2.41-1.56-5.27-1.56-8.58s.52-6.24,1.56-8.62c1.04-2.38,2.54-4.21,4.5-5.47,1.96-1.26,4.31-1.89,7.04-1.89s5.14.72,6.92,2.15c1.77,1.43,3.1,3.49,3.97,6.18l6.22-3.03c-.98-2.3-2.26-4.29-3.85-5.97-1.58-1.68-3.45-2.97-5.61-3.87-2.16-.9-4.65-1.34-7.49-1.34-3.82,0-7.23.87-10.23,2.61-3,1.74-5.35,4.25-7.04,7.53-1.69,3.28-2.54,7.19-2.54,11.73s.85,8.45,2.54,11.73c1.69,3.28,4.04,5.79,7.04,7.53,3,1.74,6.41,2.61,10.23,2.61,2.89,0,5.47-.49,7.73-1.47,2.26-.98,4.2-2.4,5.81-4.25,1.61-1.85,2.88-4.06,3.81-6.64l-6.06-2.19c-.38,1.85-1.08,3.42-2.09,4.71Z"/>
    <path class="cls-1" d="M1661.12,324.19c-2.07,0-3.11-1.01-3.11-3.03v-20.36c0-3.31-.7-6.01-2.09-8.12-1.39-2.1-3.29-3.67-5.69-4.71-2.4-1.04-5.07-1.56-8.02-1.56-4.37,0-8.02.97-10.97,2.9-2.95,1.94-4.97,4.47-6.06,7.61l5.32,3.36c.93-2.8,2.37-4.84,4.34-6.1,1.96-1.26,4.36-1.89,7.2-1.89,3,0,5.32.86,6.96,2.57,1.64,1.71,2.45,4.14,2.45,7.28v1.61l-14.89,3.02c-3.66.73-6.51,2.12-8.55,4.16-2.05,2.05-3.07,4.64-3.07,7.78,0,2.52.61,4.64,1.84,6.35,1.23,1.71,2.88,2.99,4.95,3.83,2.07.84,4.31,1.26,6.71,1.26,1.91,0,3.85-.32,5.81-.97,1.96-.64,3.74-1.65,5.32-3.03.76-.66,1.41-1.43,1.96-2.28.18.85.45,1.61.82,2.28.71,1.26,1.69,2.2,2.95,2.82,1.25.62,2.67.93,4.26.93,1.75,0,3.16-.28,4.26-.84l.33-5.3c-.98.28-1.99.42-3.03.42ZM1647.78,321.71c-1.15.87-2.44,1.51-3.89,1.93-1.45.42-2.96.63-4.54.63-2.46,0-4.35-.55-5.69-1.64-1.34-1.09-2.01-2.51-2.01-4.25s.66-3.2,1.96-4.21c1.31-1.01,3.3-1.79,5.97-2.36l11.87-2.5v4.43c0,1.8-.33,3.35-.98,4.67-.65,1.32-1.55,2.41-2.7,3.28Z"/>
    <path class="cls-1" d="M518.03,209.71c8.85-3.98,15.76-9.75,20.69-17.31,4.92-7.57,7.4-16.63,7.4-27.2,0-11.22-3.09-20.37-9.26-27.43-6.17-7.08-16.37-12.4-30.59-15.99l-26.79-6.83c-7.42-1.94-12.63-4.42-15.69-7.43-3.05-3-4.57-6.71-4.57-11.09,0-3.59.91-6.83,2.72-9.75,1.82-2.94,4.72-5.29,8.71-7.08,4-1.78,9.05-2.69,15.14-2.69,9.29,0,17.46,2,24.49,5.99,4.29,2.43,8.37,5.68,12.26,9.77l16.76-21.71c-5.35-5.63-11.35-10.15-18.02-13.56-9.88-5.03-21.34-7.55-34.4-7.55-12.34,0-22.91,2.23-31.7,6.71-8.79,4.48-15.49,10.52-20.14,18.17-4.65,7.65-6.97,16.26-6.97,25.85,0,7.97,1.55,14.85,4.68,20.62,3.12,5.77,7.69,10.48,13.72,14.14,6.02,3.66,13.25,6.63,21.66,8.91l29.19,7.31c6.83,1.63,11.51,3.95,14.05,6.95,2.54,3.02,3.82,6.63,3.82,10.86s-1.06,7.52-3.15,10.35c-2.11,2.85-5.23,5.05-9.37,6.59-4.14,1.55-9.19,2.32-15.14,2.32-6.97,0-13.6-1.18-19.93-3.54-6.31-2.35-11.94-5.57-16.88-9.63-3.86-3.18-7.25-6.71-10.11-10.6l-17.8,21.42c4.09,5.34,9.03,10.11,14.85,14.31,6.52,4.71,13.97,8.42,22.33,11.09,8.34,2.68,17.52,4.03,27.54,4.03,11.48,0,21.63-2,30.5-5.99Z"/>
    <path class="cls-1" d="M645.51,206.47l-7.8-23.17c-2.12,2.11-4.48,3.77-7.09,4.99-2.62,1.22-5.75,1.82-9.42,1.82-4.51,0-8.08-1.32-10.68-4-2.62-2.68-3.92-6.92-3.92-12.77v-57.13h35l.25-24.79h-35.25v-27.86l-28.99,4.95v22.91h-19.46v24.79h19.46v62.48c0,8.91,1,13.89,4.29,19.09,19.96,31.56,60.22,11.79,63.61,8.69Z"/>
    <path class="cls-1" d="M748.68,95.88c-7.94-4.94-17.59-7.42-28.97-7.42s-20.91,2.52-29.53,7.54c-8.6,5.03-15.31,12.25-20.09,21.63-4.79,9.4-7.19,20.76-7.19,34.03s2.4,24.65,7.19,34.03c4.79,9.4,11.57,16.62,20.33,21.65,8.75,5.02,19.05,7.52,30.86,7.52,7.65,0,14.79-1.17,21.45-3.52,6.66-2.34,12.43-5.79,17.29-10.32,4.86-4.54,8.49-9.97,10.89-16.29l-24.48-10.2c-2.25,4.86-5.39,8.66-9.43,11.42-4.05,2.75-9.35,4.14-15.94,4.14-5.99,0-11.12-1.38-15.39-4.14-4.26-2.75-7.55-6.92-9.88-12.51-1.35-3.26-2.31-7.03-2.88-11.31h79.33c.31-2.28.52-4.86.68-7.79.15-2.91.23-5.99.23-9.23,0-10.86-2.11-20.54-6.29-29.05-4.2-8.51-10.26-15.23-18.19-20.19ZM693.29,139.04c.51-3.18,1.23-6.06,2.17-8.63,2.09-5.75,5.2-10.09,9.32-13,4.11-2.92,9.02-4.39,14.71-4.39,7.77,0,13.8,2.75,18.06,8.26,3.43,4.42,5.46,10.34,6.14,17.76h-50.41Z"/>
    <path class="cls-1" d="M900.91,184.73l-24.46-10.2c-2.25,4.86-5.4,8.66-9.43,11.42-4.05,2.75-9.37,4.14-15.96,4.14-5.99,0-11.11-1.38-15.37-4.14-4.26-2.75-7.57-6.92-9.88-12.51-1.35-3.26-2.31-7.03-2.88-11.31h79.33c.29-2.28.52-4.86.68-7.79.14-2.91.22-5.99.22-9.23,0-10.86-2.09-20.54-6.28-29.05-4.2-8.51-10.26-15.23-18.2-20.19-7.92-4.94-17.59-7.42-28.96-7.42s-20.93,2.52-29.53,7.54c-8.62,5.03-15.31,12.25-20.09,21.63-4.8,9.4-7.19,20.76-7.19,34.03s2.38,24.65,7.19,34.03c4.79,9.4,11.56,16.62,20.31,21.65,8.77,5.02,19.05,7.52,30.88,7.52,7.63,0,14.79-1.17,21.45-3.52,6.65-2.34,12.42-5.79,17.28-10.32,4.86-4.54,8.49-9.97,10.89-16.29ZM825.47,130.4c2.09-5.75,5.2-10.09,9.31-13,4.12-2.92,9.02-4.39,14.71-4.39,7.79,0,13.82,2.75,18.08,8.26,3.42,4.42,5.46,10.34,6.14,17.76h-50.42c.51-3.18,1.23-6.06,2.18-8.63Z"/>
    <path class="cls-1" d="M975.03,188.91c-2.55.79-11.53.95-13.33-1.25-1.8-2.19-2.69-6.03-2.69-11.52V43.26h-30.76v136.41c0,12.23,3.65,22.9,9.43,27.66,16.83,13.85,36.84,5.63,40.08,5.12l-2.73-23.54Z"/>
    <path class="cls-1" d="M1165.28,76.12c-4.45-7.71-10.73-13.63-18.87-17.77-8.13-4.14-17.93-6.21-29.38-6.21h-62.59v160.65h31.18v-56.96h31.41c11.45,0,21.24-2.07,29.38-6.21,8.13-4.14,14.42-10.06,18.87-17.77,4.44-7.71,6.67-17,6.67-27.87s-2.22-20.16-6.67-27.87ZM1133.3,121.75c-4.67,4.23-11.68,6.35-21.02,6.35h-26.67v-49.84h26.67c9.34,0,16.34,2.08,21.02,6.23,4.67,4.16,7.01,10.39,7.01,18.69s-2.34,14.34-7.01,18.57Z"/>
    <rect class="cls-1" x="1325.25" y="91.84" width="30.96" height="121.97"/>
    <circle class="cls-1" cx="1341.06" cy="59.49" r="18.58"/>
    <path class="cls-1" d="M1463.22,120.66c3.81,4.02,5.71,11.27,5.71,21.76v71.05h31.31v-80.64c0-10-1.79-18.32-5.37-24.95-3.58-6.64-8.46-11.59-14.63-14.87-6.17-3.28-13.22-4.92-21.14-4.92-6.86,0-13.14,1.31-18.85,3.93-5.71,2.62-10.55,6.52-14.51,11.68-2.15,2.8-3.97,6.04-5.49,9.69l-1.13-22.84h-28.11v122.93h31.31v-65.15c0-8.19,1.26-14.75,3.77-19.67,2.51-4.92,5.79-8.48,9.83-10.7,4.04-2.21,8.19-3.32,12.45-3.32,6.09,0,11.04,2.01,14.85,6.02Z"/>
    <path class="cls-1" d="M1308.36,210.42l1.88-21.02c-2.35.83-4.85,1.24-7.51,1.24-5.63,0-8.45-3.13-8.45-9.4v-50.19c0-10.22-2.15-18.71-6.45-25.47-4.31-6.76-10.29-11.83-17.95-15.21-7.67-3.38-16.66-5.07-26.99-5.07-15.18,0-27.27,3.3-36.26,9.89-9,6.59-14.83,15.33-17.49,26.21l27.46,8.9c2.03-7.25,5.24-12.44,9.62-15.58,4.38-3.13,9.47-4.7,15.26-4.7,6.26,0,11.3,1.98,15.14,5.93,3.83,3.96,5.75,9.48,5.75,16.57v4.76l-40.37,8.6c-10.48,2.14-18.54,6.14-24.17,11.99-5.63,5.85-8.45,13.39-8.45,22.62,0,7.26,1.56,13.35,4.69,18.3,3.13,4.94,7.59,8.7,13.38,11.25,5.79,2.55,12.67,3.83,20.65,3.83,6.41,0,12.63-1.15,18.66-3.46,6.02-2.31,11.15-5.64,15.37-10.01,1.3-1.34,2.43-2.79,3.42-4.31.61,2.02,1.42,3.88,2.45,5.55,2.5,4.04,5.94,7.05,10.33,9.03,4.38,1.98,9.31,2.97,14.79,2.97,6.1,0,11.19-1.07,15.26-3.21ZM1260.25,177.29c-1.41,3.13-3.37,5.61-5.87,7.42-2.5,1.82-5.32,3.13-8.45,3.96-3.13.83-6.34,1.24-9.62,1.24-4.07,0-7.55-1.07-10.44-3.21-2.9-2.14-4.34-5.27-4.34-9.4s1.37-7.38,4.11-9.27c2.74-1.89,6.77-3.42,12.09-4.57l24.64-5.19v7.67c0,4.45-.7,8.24-2.11,11.37Z"/>
    <path class="cls-1" d="M1596.66,184.34c-2.12,2.11-4.48,3.77-7.09,4.99-2.62,1.22-5.75,1.82-9.42,1.82-4.51,0-8.08-1.32-10.68-4-2.62-2.68-3.92-6.92-3.92-12.77v-57.13h35l.25-24.79h-35.25v-27.86l-28.99,4.95v22.91h-19.46v24.79h19.46v62.48c0,8.91,1,13.89,4.29,19.09,19.96,31.56,60.22,11.79,63.61,8.69l-7.8-23.17Z"/>
  </g>
</svg>